<?xml version="1.0" standalone="no"?>
<!DOCTYPE svg PUBLIC "-//W3C//DTD SVG 20010904//EN"
 "http://www.w3.org/TR/2001/REC-SVG-20010904/DTD/svg10.dtd">
<svg version="1.0" xmlns="http://www.w3.org/2000/svg"
 width="70.000000pt" height="70.000000pt" viewBox="0 0 70.000000 70.000000"
 preserveAspectRatio="xMidYMid meet">
<metadata>
Created by potrace 1.14, written by Peter Selinger 2001-2017
</metadata>
<g transform="translate(0.000000,70.000000) scale(0.100000,-0.100000)"
fill="#000000" stroke="none">
<path d="M40 348 c-3 -37 -1 -63 3 -59 4 4 7 35 5 67 l-3 59 -5 -67z"/>
<path d="M158 398 c8 -9 17 -29 22 -45 l8 -28 1 26 c1 15 -8 34 -21 45 -17 14
-19 15 -10 2z"/>
<path d="M223 355 c0 -33 2 -45 4 -27 2 18 2 45 0 60 -2 15 -4 0 -4 -33z"/>
<path d="M490 404 c1 -14 89 -110 90 -96 0 6 -4 12 -9 12 -4 0 -25 21 -45 47
-20 25 -36 42 -36 37z"/>
<path d="M409 383 c4 -10 14 -33 22 -50 7 -18 17 -33 21 -33 5 0 -3 23 -17 50
-14 28 -27 50 -30 50 -2 0 -1 -8 4 -17z"/>
<path d="M80 370 c-4 -26 1 -45 17 -60 12 -12 14 -12 8 -1 -5 8 -12 28 -16 45
-4 17 -8 24 -9 16z"/>
<path d="M125 350 c4 -6 11 -8 16 -5 14 9 11 15 -7 15 -8 0 -12 -5 -9 -10z"/>
</g>
</svg>
